<?xml version="1.0" encoding="UTF-8" standalone="no" ?>
<COLLADA xmlns="http://www.collada.org/2005/11/COLLADASchema" version="1.4.1">
    <asset>
        <contributor>
            <authoring_tool>SketchUp 15.3.331</authoring_tool>
        </contributor>
        <created>2015-03-02T22:26:25Z</created>
        <modified>2015-03-02T22:26:25Z</modified>
        <unit meter="0.0254" name="inch" />
        <up_axis>Z_UP</up_axis>
    </asset>
    <library_visual_scenes>
        <visual_scene id="ID1">
            <node name="SketchUp">
                <instance_geometry url="#ID2">
                    <bind_material>
                        <technique_common>
                            <instance_material symbol="Material2" target="#ID3">
                                <bind_vertex_input semantic="UVSET0" input_semantic="TEXCOORD" input_set="0" />
                            </instance_material>
                        </technique_common>
                    </bind_material>
                </instance_geometry>
            </node>
        </visual_scene>
    </library_visual_scenes>
    <library_geometries>
        <geometry id="ID2">
            <mesh>
                <source id="ID5">
                    <float_array id="ID8" count="216">-1.012275 1 -8.766058e-018 -12 -1 0 -12 1 0 -1.012275 -1 -8.766058e-018 12 1 0 0.987725 -1 -8.766058e-018 0.987725 1 -8.766058e-018 12 -1 0 0.987725 -12.38154 -1.753212e-017 -1.012275 -12.38154 -1.753212e-017 -1.012275 11.61846 -1.753212e-017 0.987725 11.61846 -1.753212e-017 0.987725 11.61846 -1.753212e-017 0.987725 1 0.7 0.987725 1 -8.766058e-018 0.987725 11.61846 0.7 0.987725 1 0.7 12 1 0 0.987725 1 -8.766058e-018 12 1 0.7 12 1 0 12 -1 0.7 12 -1 0 12 1 0.7 12 -1 0 0.987725 -1 0.7 0.987725 -1 -8.766058e-018 12 -1 0.7 0.987725 -1 -8.766058e-018 0.987725 -12.38154 0.7 0.987725 -12.38154 -1.753212e-017 0.987725 -1 0.7 0.987725 -12.38154 0.7 -1.012275 -12.38154 -1.753212e-017 0.987725 -12.38154 -1.753212e-017 -1.012275 -12.38154 0.7 -1.012275 -1 0.7 -1.012275 -12.38154 -1.753212e-017 -1.012275 -12.38154 0.7 -1.012275 -1 -8.766058e-018 -1.012275 -1 0.7 -12 -1 0 -1.012275 -1 -8.766058e-018 -12 -1 0.7 -12 1 0.7 -12 -1 0 -12 -1 0.7 -12 1 0 -12 1 0 -1.012275 1 0.7 -1.012275 1 -8.766058e-018 -12 1 0.7 -1.012275 11.61846 0.7 -1.012275 1 -8.766058e-018 -1.012275 1 0.7 -1.012275 11.61846 -1.753212e-017 -1.012275 11.61846 0.7 0.987725 11.61846 -1.753212e-017 -1.012275 11.61846 -1.753212e-017 0.987725 11.61846 0.7 -1.012275 -1 0.7 -12 1 0.7 -12 -1 0.7 -1.012275 1 0.7 0.987725 -12.38154 0.7 -1.012275 -12.38154 0.7 -1.012275 11.61846 0.7 0.987725 1 0.7 0.987725 11.61846 0.7 0.987725 -1 0.7 12 1 0.7 12 -1 0.7</float_array>
                    <technique_common>
                        <accessor count="72" source="#ID8" stride="3">
                            <param name="X" type="float" />
                            <param name="Y" type="float" />
                            <param name="Z" type="float" />
                        </accessor>
                    </technique_common>
                </source>
                <source id="ID6">
                    <float_array id="ID9" count="216">7.367649e-022 2.289277e-020 -1 7.367649e-022 2.289277e-020 -1 7.367649e-022 2.289277e-020 -1 7.367649e-022 2.289277e-020 -1 7.367649e-022 2.289277e-020 -1 7.367649e-022 2.289277e-020 -1 7.367649e-022 2.289277e-020 -1 7.367649e-022 2.289277e-020 -1 7.367649e-022 2.289277e-020 -1 7.367649e-022 2.289277e-020 -1 7.367649e-022 2.289277e-020 -1 7.367649e-022 2.289277e-020 -1 1 1.882006e-016 7.367649e-022 1 1.882006e-016 7.367649e-022 1 1.882006e-016 7.367649e-022 1 1.882006e-016 7.367649e-022 -8.065349e-017 1 2.289277e-020 -8.065349e-017 1 2.289277e-020 -8.065349e-017 1 2.289277e-020 -8.065349e-017 1 2.289277e-020 1 0 7.367649e-022 1 0 7.367649e-022 1 0 7.367649e-022 1 0 7.367649e-022 8.065349e-017 -1 -2.289277e-020 8.065349e-017 -1 -2.289277e-020 8.065349e-017 -1 -2.289277e-020 8.065349e-017 -1 -2.289277e-020 1 1.073006e-016 7.367649e-022 1 1.073006e-016 7.367649e-022 1 1.073006e-016 7.367649e-022 1 1.073006e-016 7.367649e-022 7.105427e-015 -1 -2.289277e-020 7.105427e-015 -1 -2.289277e-020 7.105427e-015 -1 -2.289277e-020 7.105427e-015 -1 -2.289277e-020 -1 1.950919e-016 -7.367649e-022 -1 1.950919e-016 -7.367649e-022 -1 1.950919e-016 -7.367649e-022 -1 1.950919e-016 -7.367649e-022 -1.826396e-038 -1 -2.289277e-020 -1.826396e-038 -1 -2.289277e-020 -1.826396e-038 -1 -2.289277e-020 -1.826396e-038 -1 -2.289277e-020 -1 0 -7.367649e-022 -1 0 -7.367649e-022 -1 0 -7.367649e-022 -1 0 -7.367649e-022 8.08337e-017 1 2.289277e-020 8.08337e-017 1 2.289277e-020 8.08337e-017 1 2.289277e-020 8.08337e-017 1 2.289277e-020 -1 1.254671e-016 -7.367649e-022 -1 1.254671e-016 -7.367649e-022 -1 1.254671e-016 -7.367649e-022 -1 1.254671e-016 -7.367649e-022 1.776357e-015 1 2.289277e-020 1.776357e-015 1 2.289277e-020 1.776357e-015 1 2.289277e-020 1.776357e-015 1 2.289277e-020 -7.367649e-022 -2.289277e-020 1 -7.367649e-022 -2.289277e-020 1 -7.367649e-022 -2.289277e-020 1 -7.367649e-022 -2.289277e-020 1 -7.367649e-022 -2.289277e-020 1 -7.367649e-022 -2.289277e-020 1 -7.367649e-022 -2.289277e-020 1 -7.367649e-022 -2.289277e-020 1 -7.367649e-022 -2.289277e-020 1 -7.367649e-022 -2.289277e-020 1 -7.367649e-022 -2.289277e-020 1 -7.367649e-022 -2.289277e-020 1</float_array>
                    <technique_common>
                        <accessor count="72" source="#ID9" stride="3">
                            <param name="X" type="float" />
                            <param name="Y" type="float" />
                            <param name="Z" type="float" />
                        </accessor>
                    </technique_common>
                </source>
                <vertices id="ID7">
                    <input semantic="POSITION" source="#ID5" />
                    <input semantic="NORMAL" source="#ID6" />
                </vertices>
                <triangles count="44" material="Material2">
                    <input offset="0" semantic="VERTEX" source="#ID7" />
                    <p>0 1 2 1 0 3 4 5 6 5 4 7 3 8 9 8 3 0 8 0 10 8 10 6 6 10 11 8 6 5 12 13 14 13 12 15 16 17 18 17 16 19 20 21 22 21 20 23 24 25 26 25 24 27 28 29 30 29 28 31 32 33 34 33 32 35 36 37 38 37 36 39 40 41 42 41 40 43 44 45 46 45 44 47 48 49 50 49 48 51 52 53 54 53 52 55 56 57 58 57 56 59 60 61 62 61 60 63 64 60 65 60 64 63 63 64 66 66 64 67 66 67 68 67 64 69 69 70 67 70 69 71</p>
                </triangles>
            </mesh>
        </geometry>
    </library_geometries>
    <library_materials>
        <material id="ID3" name="Color_A02">
            <instance_effect url="#ID4" />
        </material>
    </library_materials>
    <library_effects>
        <effect id="ID4">
            <profile_COMMON>
                <technique sid="COMMON">
                    <lambert>
                        <diffuse>
                            <color>1 0.1960784 0.1960784 1</color>
                        </diffuse>
                    </lambert>
                </technique>
            </profile_COMMON>
        </effect>
    </library_effects>
    <scene>
        <instance_visual_scene url="#ID1" />
    </scene>
</COLLADA>
