<?xml version="1.0" encoding="UTF-8" standalone="no" ?>
<COLLADA xmlns="http://www.collada.org/2005/11/COLLADASchema" version="1.4.1">
    <asset>
        <contributor>
            <authoring_tool>SketchUp 15.3.331</authoring_tool>
        </contributor>
        <created>2015-03-01T23:01:30Z</created>
        <modified>2015-03-01T23:01:30Z</modified>
        <unit meter="0.0254" name="inch" />
        <up_axis>Z_UP</up_axis>
    </asset>
    <library_visual_scenes>
        <visual_scene id="ID1">
            <node name="SketchUp">
                <instance_geometry url="#ID2">
                    <bind_material>
                        <technique_common>
                            <instance_material symbol="Material2" target="#ID3">
                                <bind_vertex_input semantic="UVSET0" input_semantic="TEXCOORD" input_set="0" />
                            </instance_material>
                        </technique_common>
                    </bind_material>
                </instance_geometry>
            </node>
        </visual_scene>
    </library_visual_scenes>
    <library_geometries>
        <geometry id="ID2">
            <mesh>
                <source id="ID5">
                    <float_array id="ID8" count="288">-31.2044 4.305262 0 -29.17644 -11.87373 0 -31.25542 -3.91773 0 -29.02685 12.23486 0 -25.10912 -19.02056 0 -24.87117 19.33067 0 -19.33067 -24.87117 0 -19.02056 25.10912 0 -12.23486 -29.02685 0 -11.87373 29.17644 0 -4.305262 -31.2044 0 -3.91773 31.25542 0 3.91773 -31.25542 0 4.305262 31.2044 0 11.87373 -29.17644 0 12.23486 29.02685 0 19.02056 -25.10912 0 19.33067 24.87117 0 24.87117 -19.33067 0 25.10912 19.02056 0 29.02685 -12.23486 0 29.17644 11.87373 0 31.2044 -4.305262 0 31.25542 3.91773 0 -12.23486 -29.02685 1.8 -19.33067 -24.87117 0 -12.23486 -29.02685 0 -19.33067 -24.87117 1.8 -25.10912 -19.02056 1.8 -25.10912 -19.02056 0 -29.17644 -11.87373 1.8 -29.17644 -11.87373 0 -31.25542 -3.91773 1.8 -31.25542 -3.91773 0 -31.2044 4.305262 1.8 -31.2044 4.305262 0 -29.02685 12.23486 1.8 -29.02685 12.23486 0 -24.87117 19.33067 1.8 -24.87117 19.33067 0 -19.02056 25.10912 0 -19.02056 25.10912 1.8 -11.87373 29.17644 0 -11.87373 29.17644 1.8 -3.91773 31.25542 0 -3.91773 31.25542 1.8 4.305262 31.2044 0 4.305262 31.2044 1.8 12.23486 29.02685 0 12.23486 29.02685 1.8 19.33067 24.87117 0 19.33067 24.87117 1.8 25.10912 19.02056 1.8 25.10912 19.02056 0 29.17644 11.87373 1.8 29.17644 11.87373 0 31.25542 3.91773 1.8 31.25542 3.91773 0 31.2044 -4.305262 1.8 31.2044 -4.305262 0 29.02685 -12.23486 1.8 29.02685 -12.23486 0 24.87117 -19.33067 1.8 24.87117 -19.33067 0 19.02056 -25.10912 0 19.02056 -25.10912 1.8 11.87373 -29.17644 0 11.87373 -29.17644 1.8 3.91773 -31.25542 0 3.91773 -31.25542 1.8 -4.305262 -31.2044 0 -4.305262 -31.2044 1.8 -29.17644 -11.87373 1.8 -31.2044 4.305262 1.8 -31.25542 -3.91773 1.8 -29.02685 12.23486 1.8 -25.10912 -19.02056 1.8 -24.87117 19.33067 1.8 -19.33067 -24.87117 1.8 -19.02056 25.10912 1.8 -12.23486 -29.02685 1.8 -11.87373 29.17644 1.8 -4.305262 -31.2044 1.8 -3.91773 31.25542 1.8 3.91773 -31.25542 1.8 4.305262 31.2044 1.8 11.87373 -29.17644 1.8 12.23486 29.02685 1.8 19.02056 -25.10912 1.8 19.33067 24.87117 1.8 24.87117 -19.33067 1.8 25.10912 19.02056 1.8 29.02685 -12.23486 1.8 29.17644 11.87373 1.8 31.2044 -4.305262 1.8 31.25542 3.91773 1.8</float_array>
                    <technique_common>
                        <accessor count="96" source="#ID8" stride="3">
                            <param name="X" type="float" />
                            <param name="Y" type="float" />
                            <param name="Z" type="float" />
                        </accessor>
                    </technique_common>
                </source>
                <source id="ID6">
                    <float_array id="ID9" count="288">0 0 -1 0 0 -1 0 0 -1 0 0 -1 0 0 -1 0 0 -1 0 0 -1 0 0 -1 0 0 -1 0 0 -1 0 0 -1 0 0 -1 0 0 -1 0 0 -1 0 0 -1 0 0 -1 0 0 -1 0 0 -1 0 0 -1 0 0 -1 0 0 -1 0 0 -1 0 0 -1 0 0 -1 -0.3884082 -0.9214874 0 -0.613672 -0.7895611 0 -0.3884082 -0.9214874 0 -0.613672 -0.7895611 0 -0.7971151 -0.6038274 0 -0.7971151 -0.6038274 0 -0.9262361 -0.376944 0 -0.9262361 -0.376944 0 -0.9922356 -0.1243724 0 -0.9922356 -0.1243724 0 -0.9906159 0.136675 0 -0.9906159 0.136675 0 -0.9214874 0.3884082 0 -0.9214874 0.3884082 0 -0.7895611 0.613672 0 -0.7895611 0.613672 0 -0.6038274 0.7971151 0 -0.6038274 0.7971151 0 -0.376944 0.9262361 0 -0.376944 0.9262361 0 -0.1243724 0.9922356 0 -0.1243724 0.9922356 0 0.136675 0.9906159 0 0.136675 0.9906159 0 0.3884082 0.9214874 0 0.3884082 0.9214874 0 0.613672 0.7895611 0 0.613672 0.7895611 0 0.7971151 0.6038274 0 0.7971151 0.6038274 0 0.9262361 0.376944 0 0.9262361 0.376944 0 0.9922356 0.1243724 0 0.9922356 0.1243724 0 0.9906159 -0.136675 0 0.9906159 -0.136675 0 0.9214874 -0.3884082 0 0.9214874 -0.3884082 0 0.7895611 -0.613672 0 0.7895611 -0.613672 0 0.6038274 -0.7971151 0 0.6038274 -0.7971151 0 0.376944 -0.9262361 0 0.376944 -0.9262361 0 0.1243724 -0.9922356 0 0.1243724 -0.9922356 0 -0.136675 -0.9906159 0 -0.136675 -0.9906159 0 -0 -0 1 -0 -0 1 -0 -0 1 -0 -0 1 -0 -0 1 -0 -0 1 -0 -0 1 -0 -0 1 -0 -0 1 -0 -0 1 -0 -0 1 -0 -0 1 -0 -0 1 -0 -0 1 -0 -0 1 -0 -0 1 -0 -0 1 -0 -0 1 -0 -0 1 -0 -0 1 -0 -0 1 -0 -0 1 -0 -0 1 -0 -0 1</float_array>
                    <technique_common>
                        <accessor count="96" source="#ID9" stride="3">
                            <param name="X" type="float" />
                            <param name="Y" type="float" />
                            <param name="Z" type="float" />
                        </accessor>
                    </technique_common>
                </source>
                <vertices id="ID7">
                    <input semantic="POSITION" source="#ID5" />
                    <input semantic="NORMAL" source="#ID6" />
                </vertices>
                <triangles count="92" material="Material2">
                    <input offset="0" semantic="VERTEX" source="#ID7" />
                    <p>0 1 2 1 0 3 1 3 4 4 3 5 4 5 6 6 5 7 6 7 8 8 7 9 8 9 10 10 9 11 10 11 12 12 11 13 12 13 14 14 13 15 14 15 16 16 15 17 16 17 18 18 17 19 18 19 20 20 19 21 20 21 22 22 21 23 24 25 26 25 24 27 28 25 27 25 28 29 30 29 28 29 30 31 32 31 30 31 32 33 34 33 32 33 34 35 36 35 34 35 36 37 38 37 36 37 38 39 38 40 39 40 38 41 41 42 40 42 41 43 43 44 42 44 43 45 45 46 44 46 45 47 47 48 46 48 47 49 49 50 48 50 49 51 50 52 53 52 50 51 53 54 55 54 53 52 55 56 57 56 55 54 57 58 59 58 57 56 59 60 61 60 59 58 61 62 63 62 61 60 62 64 63 64 62 65 65 66 64 66 65 67 67 68 66 68 67 69 69 70 68 70 69 71 71 26 70 26 71 24 72 73 74 73 72 75 75 72 76 75 76 77 77 76 78 77 78 79 79 78 80 79 80 81 81 80 82 81 82 83 83 82 84 83 84 85 85 84 86 85 86 87 87 86 88 87 88 89 89 88 90 89 90 91 91 90 92 91 92 93 93 92 94 93 94 95</p>
                </triangles>
            </mesh>
        </geometry>
    </library_geometries>
    <library_materials>
        <material id="ID3" name="Color_F06">
            <instance_effect url="#ID4" />
        </material>
    </library_materials>
    <library_effects>
        <effect id="ID4">
            <profile_COMMON>
                <technique sid="COMMON">
                    <lambert>
                        <diffuse>
                            <color>0.4 0.8 0 1</color>
                        </diffuse>
                    </lambert>
                </technique>
            </profile_COMMON>
        </effect>
    </library_effects>
    <scene>
        <instance_visual_scene url="#ID1" />
    </scene>
</COLLADA>
