<?xml version="1.0" encoding="utf-8"?>
<COLLADA xmlns="http://www.collada.org/2005/11/COLLADASchema" version="1.4.1">
  <asset>
    <contributor>
      <author>Blender User</author>
      <authoring_tool>Blender 2.68.0 r58537</authoring_tool>
    </contributor>
    <created>2013-10-04T05:50:23</created>
    <modified>2013-10-04T05:50:23</modified>
    <unit name="meter" meter="1"/>
    <up_axis>Z_UP</up_axis>
  </asset>
  <library_images/>
  <library_effects>
    <effect id="Material_001-effect">
      <profile_COMMON>
        <technique sid="common">
          <phong>
            <emission>
              <color sid="emission">0 0 0 1</color>
            </emission>
            <ambient>
              <color sid="ambient">0 0 0 1</color>
            </ambient>
            <diffuse>
              <color sid="diffuse">0.1890443 0.64 0 1</color>
            </diffuse>
            <specular>
              <color sid="specular">0.1640625 0.1640625 0.1640625 1</color>
            </specular>
            <shininess>
              <float sid="shininess">50</float>
            </shininess>
            <index_of_refraction>
              <float sid="index_of_refraction">1</float>
            </index_of_refraction>
          </phong>
        </technique>
        <extra>
          <technique profile="GOOGLEEARTH">
            <double_sided>1</double_sided>
          </technique>
        </extra>
      </profile_COMMON>
      <extra><technique profile="MAX3D"><double_sided>1</double_sided></technique></extra>
    </effect>
  </library_effects>
  <library_materials>
    <material id="Material_001-material" name="Material_001">
      <instance_effect url="#Material_001-effect"/>
    </material>
  </library_materials>
  <library_geometries>
    <geometry id="Cylinder-mesh" name="Cylinder">
      <mesh>
        <source id="Cylinder-mesh-positions">
          <float_array id="Cylinder-mesh-positions-array" count="192">0 1 -1 0 1 1 0.1950903 0.9807853 -1 0.1950903 0.9807853 1 0.3826835 0.9238795 -1 0.3826835 0.9238795 1 0.5555703 0.8314696 -1 0.5555703 0.8314696 1 0.7071068 0.7071068 -1 0.7071068 0.7071068 1 0.8314697 0.5555702 -1 0.8314697 0.5555702 1 0.9238795 0.3826834 -1 0.9238795 0.3826834 1 0.9807853 0.1950903 -1 0.9807853 0.1950903 1 1 0 -1 1 0 1 0.9807853 -0.1950902 -1 0.9807853 -0.1950902 1 0.9238796 -0.3826833 -1 0.9238796 -0.3826833 1 0.8314697 -0.5555702 -1 0.8314697 -0.5555702 1 0.7071068 -0.7071068 -1 0.7071068 -0.7071068 1 0.5555702 -0.8314697 -1 0.5555702 -0.8314697 1 0.3826833 -0.9238796 -1 0.3826833 -0.9238796 1 0.1950901 -0.9807853 -1 0.1950901 -0.9807853 1 -3.25841e-7 -1 -1 -3.25841e-7 -1 1 -0.1950907 -0.9807852 -1 -0.1950907 -0.9807852 1 -0.3826839 -0.9238793 -1 -0.3826839 -0.9238793 1 -0.5555707 -0.8314693 -1 -0.5555707 -0.8314693 1 -0.7071073 -0.7071064 -1 -0.7071073 -0.7071064 1 -0.83147 -0.5555697 -1 -0.83147 -0.5555697 1 -0.9238799 -0.3826827 -1 -0.9238799 -0.3826827 1 -0.9807854 -0.1950894 -1 -0.9807854 -0.1950894 1 -1 9.65599e-7 -1 -1 9.65599e-7 1 -0.9807851 0.1950913 -1 -0.9807851 0.1950913 1 -0.9238791 0.3826845 -1 -0.9238791 0.3826845 1 -0.8314689 0.5555713 -1 -0.8314689 0.5555713 1 -0.7071059 0.7071077 -1 -0.7071059 0.7071077 1 -0.5555691 0.8314704 -1 -0.5555691 0.8314704 1 -0.3826821 0.9238801 -1 -0.3826821 0.9238801 1 -0.1950888 0.9807856 -1 -0.1950888 0.9807856 1</float_array>
          <technique_common>
            <accessor source="#Cylinder-mesh-positions-array" count="64" stride="3">
              <param name="X" type="float"/>
              <param name="Y" type="float"/>
              <param name="Z" type="float"/>
            </accessor>
          </technique_common>
        </source>
        <source id="Cylinder-mesh-normals">
          <float_array id="Cylinder-mesh-normals-array" count="372">0.09801727 0.9951847 0 0.2902846 0.9569404 0 0.4713967 0.8819213 0 0.6343933 0.7730104 0 0.7730104 0.6343934 0 0.8819214 0.4713965 0 0.9569403 0.2902847 0 0.9951847 0.09801727 0 0.9951847 -0.09801697 0 0.9569403 -0.2902847 0 0.8819214 -0.4713965 0 0.7730104 -0.6343934 0 0.6343934 -0.7730104 0 0.4713967 -0.8819212 0 0.2902843 -0.9569405 0 0.09801691 -0.9951847 0 -0.09801751 -0.9951847 0 -0.2902852 -0.9569402 0 -0.4713971 -0.8819211 0 -0.6343937 -0.7730101 0 -0.773011 -0.6343927 0 -0.8819215 -0.471396 0 -0.9569407 -0.2902837 0 -0.9951848 -0.09801632 0 -0.9951846 0.0980181 0 -0.95694 0.2902858 0 -0.8819208 0.4713976 0 -0.7730096 0.6343944 0 -0.6343924 0.7730112 0 -0.4713954 0.8819218 0 0 0 1 -0.0980165 0.9951848 0 -0.290283 0.9569409 0 0 0 -1 0.09801727 0.9951847 0 0.2902846 0.9569404 0 0.4713967 0.8819213 0 0.6343933 0.7730104 0 0.7730104 0.6343934 0 0.8819214 0.4713965 0 0.9569403 0.2902847 0 0.9951847 0.09801727 0 0.9951847 -0.09801697 0 0.9569403 -0.2902847 0 0.8819214 -0.4713965 0 0.7730104 -0.6343934 0 0.6343934 -0.7730104 0 0.4713967 -0.8819212 0 0.2902843 -0.9569405 0 0.09801691 -0.9951847 0 -0.09801751 -0.9951847 0 -0.2902852 -0.9569402 0 -0.4713971 -0.8819211 0 -0.6343937 -0.7730101 0 -0.773011 -0.6343927 0 -0.8819215 -0.471396 0 -0.9569407 -0.2902837 0 -0.9951848 -0.09801632 0 -0.9951846 0.0980181 0 -0.95694 0.2902858 0 -0.8819208 0.4713976 0 -0.7730096 0.6343944 0 -0.6343924 0.7730112 0 -0.4713954 0.8819218 0 0 0 1 0 0 1 0 0 1 0 0 1 0 0 1 0 0 1 0 0 1 0 0 1 0 0 1 0 0 1 0 0 1 0 0 1 0 0 1 0 0 1 0 0 1 0 0 1 0 0 1 0 0 1 0 0 1 0 0 1 0 0 1 0 0 1 0 0 1 0 0 1 0 0 1 0 0 1 0 0 1 0 0 1 0 0 1 -0.0980165 0.9951848 0 -0.290283 0.9569409 0 0 0 -1 0 0 -1 0 0 -1 0 0 -1 0 0 -1 0 0 -1 0 0 -1 0 0 -1 0 0 -1 0 0 -1 0 0 -1 0 0 -1 0 0 -1 0 0 -1 0 0 -1 0 0 -1 0 0 -1 0 0 -1 0 0 -1 0 0 -1 0 0 -1 0 0 -1 0 0 -1 0 0 -1 0 0 -1 0 0 -1 0 0 -1 0 0 -1 0 0 -1</float_array>
          <technique_common>
            <accessor source="#Cylinder-mesh-normals-array" count="124" stride="3">
              <param name="X" type="float"/>
              <param name="Y" type="float"/>
              <param name="Z" type="float"/>
            </accessor>
          </technique_common>
        </source>
        <vertices id="Cylinder-mesh-vertices">
          <input semantic="POSITION" source="#Cylinder-mesh-positions"/>
        </vertices>
        <polylist material="Material_001-material" count="124">
          <input semantic="VERTEX" source="#Cylinder-mesh-vertices" offset="0"/>
          <input semantic="NORMAL" source="#Cylinder-mesh-normals" offset="1"/>
          <vcount>3 3 3 3 3 3 3 3 3 3 3 3 3 3 3 3 3 3 3 3 3 3 3 3 3 3 3 3 3 3 3 3 3 3 3 3 3 3 3 3 3 3 3 3 3 3 3 3 3 3 3 3 3 3 3 3 3 3 3 3 3 3 3 3 3 3 3 3 3 3 3 3 3 3 3 3 3 3 3 3 3 3 3 3 3 3 3 3 3 3 3 3 3 3 3 3 3 3 3 3 3 3 3 3 3 3 3 3 3 3 3 3 3 3 3 3 3 3 3 3 3 3 3 3 </vcount>
          <p>0 0 1 0 2 0 2 1 3 1 4 1 4 2 5 2 6 2 6 3 7 3 8 3 8 4 9 4 10 4 10 5 11 5 12 5 12 6 13 6 14 6 14 7 15 7 16 7 16 8 17 8 18 8 18 9 19 9 20 9 20 10 21 10 22 10 22 11 23 11 24 11 24 12 25 12 26 12 26 13 27 13 28 13 28 14 29 14 30 14 30 15 31 15 32 15 32 16 33 16 34 16 34 17 35 17 36 17 36 18 37 18 38 18 38 19 39 19 40 19 40 20 41 20 42 20 42 21 43 21 44 21 44 22 45 22 46 22 46 23 47 23 48 23 48 24 49 24 50 24 50 25 51 25 52 25 52 26 53 26 54 26 54 27 55 27 56 27 56 28 57 28 58 28 58 29 59 29 60 29 3 30 1 30 5 30 62 31 63 31 0 31 60 32 61 32 62 32 0 33 2 33 62 33 1 34 3 34 2 34 3 35 5 35 4 35 5 36 7 36 6 36 7 37 9 37 8 37 9 38 11 38 10 38 11 39 13 39 12 39 13 40 15 40 14 40 15 41 17 41 16 41 17 42 19 42 18 42 19 43 21 43 20 43 21 44 23 44 22 44 23 45 25 45 24 45 25 46 27 46 26 46 27 47 29 47 28 47 29 48 31 48 30 48 31 49 33 49 32 49 33 50 35 50 34 50 35 51 37 51 36 51 37 52 39 52 38 52 39 53 41 53 40 53 41 54 43 54 42 54 43 55 45 55 44 55 45 56 47 56 46 56 47 57 49 57 48 57 49 58 51 58 50 58 51 59 53 59 52 59 53 60 55 60 54 60 55 61 57 61 56 61 57 62 59 62 58 62 59 63 61 63 60 63 1 64 63 64 5 64 63 65 61 65 5 65 61 66 59 66 5 66 59 67 57 67 5 67 57 68 55 68 5 68 55 69 53 69 5 69 53 70 51 70 5 70 51 71 49 71 5 71 49 72 47 72 5 72 47 73 45 73 5 73 45 74 43 74 5 74 43 75 41 75 5 75 41 76 39 76 5 76 37 77 35 77 33 77 37 78 33 78 31 78 39 79 37 79 31 79 5 80 39 80 31 80 27 81 31 81 29 81 25 82 31 82 27 82 23 83 31 83 25 83 21 84 31 84 23 84 19 85 31 85 21 85 9 86 13 86 11 86 9 87 15 87 13 87 17 88 31 88 19 88 15 89 31 89 17 89 9 90 31 90 15 90 7 91 5 91 31 91 9 92 7 92 31 92 63 93 1 93 0 93 61 94 63 94 62 94 2 95 4 95 62 95 4 96 6 96 62 96 6 97 8 97 62 97 8 98 10 98 62 98 10 99 12 99 62 99 12 100 14 100 62 100 14 101 16 101 62 101 16 102 18 102 62 102 18 103 20 103 62 103 20 104 22 104 62 104 22 105 24 105 62 105 52 106 48 106 50 106 24 107 26 107 28 107 62 108 24 108 28 108 34 109 30 109 32 109 34 110 28 110 30 110 62 111 28 111 34 111 40 112 36 112 38 112 40 113 34 113 36 113 62 114 34 114 40 114 46 115 42 115 44 115 60 116 62 116 40 116 52 117 46 117 48 117 52 118 42 118 46 118 58 119 60 119 40 119 56 120 58 120 40 120 54 121 56 121 40 121 52 122 54 122 42 122 54 123 40 123 42 123</p>
        </polylist>
      </mesh>
      <extra><technique profile="MAYA"><double_sided>1</double_sided></technique></extra>
    </geometry>
  </library_geometries>
  <library_controllers/>
  <library_visual_scenes>
    <visual_scene id="Scene" name="Scene">
      <node id="Cylinder" name="Cylinder" type="NODE">
        <matrix sid="transform">0.393302 0 0 0 0 0.393302 0 0 0 0 0.01958534 0.02014191 0 0 0 1</matrix>
        <instance_geometry url="#Cylinder-mesh">
          <bind_material>
            <technique_common>
              <instance_material symbol="Material_001-material" target="#Material_001-material"/>
            </technique_common>
          </bind_material>
        </instance_geometry>
      </node>
    </visual_scene>
  </library_visual_scenes>
  <scene>
    <instance_visual_scene url="#Scene"/>
  </scene>
</COLLADA>