<?xml version="1.0" encoding="utf-8"?>
<COLLADA xmlns="http://www.collada.org/2005/11/COLLADASchema" version="1.4.1">
  <asset>
    <contributor>
      <author>Blender User</author>
      <authoring_tool>Blender 2.68.0 r58537</authoring_tool>
    </contributor>
    <created>2013-10-04T04:18:11</created>
    <modified>2013-10-04T04:18:11</modified>
    <unit name="meter" meter="1"/>
    <up_axis>Z_UP</up_axis>
  </asset>
  <library_images/>
  <library_effects>
    <effect id="Material-effect">
      <profile_COMMON>
        <technique sid="common">
          <phong>
            <emission>
              <color sid="emission">0 0 0 1</color>
            </emission>
            <ambient>
              <color sid="ambient">0 0 0 1</color>
            </ambient>
            <diffuse>
              <color sid="diffuse">0.620177 0.64 0 1</color>
            </diffuse>
            <specular>
              <color sid="specular">0.7109375 0.7109375 0.7109375 1</color>
            </specular>
            <shininess>
              <float sid="shininess">50</float>
            </shininess>
            <index_of_refraction>
              <float sid="index_of_refraction">1</float>
            </index_of_refraction>
          </phong>
        </technique>
        <extra>
          <technique profile="GOOGLEEARTH">
            <double_sided>1</double_sided>
          </technique>
        </extra>
      </profile_COMMON>
      <extra><technique profile="MAX3D"><double_sided>1</double_sided></technique></extra>
    </effect>
  </library_effects>
  <library_materials>
    <material id="Material-material" name="Material">
      <instance_effect url="#Material-effect"/>
    </material>
  </library_materials>
  <library_geometries>
    <geometry id="Cube-mesh" name="Cube">
      <mesh>
        <source id="Cube-mesh-positions">
          <float_array id="Cube-mesh-positions-array" count="48">-1 0.5 -1 -0.5 1 -1 0.5 1 -1 1 0.5 -1 -0.5 1 1 -1 0.5 1 1 0.5 1 0.5 1 1 -0.5 -1 -1 -1 -0.5 -1 1 -0.5 -1 0.5 -1 -1 -1 -0.5 1 -0.5 -1 1 0.5 -1 1 1 -0.5 1</float_array>
          <technique_common>
            <accessor source="#Cube-mesh-positions-array" count="16" stride="3">
              <param name="X" type="float"/>
              <param name="Y" type="float"/>
              <param name="Z" type="float"/>
            </accessor>
          </technique_common>
        </source>
        <source id="Cube-mesh-normals">
          <float_array id="Cube-mesh-normals-array" count="84">1 0 0 0 -1 0 0 0 -1 0 0 1 -0.7071068 0.7071068 0 0.7071068 0.7071068 0 0 1 0 -0.7071068 -0.7071068 0 0.7071068 -0.7071068 0 -1 0 0 1 0 0 0 -1 0 0 0 -1 0 0 -1 0 0 -1 0 0 -1 0 0 -1 0 0 1 0 0 1 0 0 1 0 0 1 0 0 1 -0.7071068 0.7071068 0 0.7071068 0.7071068 0 0 1 0 -0.7071068 -0.7071068 0 0.7071068 -0.7071068 0 -1 0 0</float_array>
          <technique_common>
            <accessor source="#Cube-mesh-normals-array" count="28" stride="3">
              <param name="X" type="float"/>
              <param name="Y" type="float"/>
              <param name="Z" type="float"/>
            </accessor>
          </technique_common>
        </source>
        <vertices id="Cube-mesh-vertices">
          <input semantic="POSITION" source="#Cube-mesh-positions"/>
        </vertices>
        <polylist material="Material-material" count="28">
          <input semantic="VERTEX" source="#Cube-mesh-vertices" offset="0"/>
          <input semantic="NORMAL" source="#Cube-mesh-normals" offset="1"/>
          <vcount>3 3 3 3 3 3 3 3 3 3 3 3 3 3 3 3 3 3 3 3 3 3 3 3 3 3 3 3 </vcount>
          <p>6 0 15 0 3 0 14 1 13 1 11 1 8 2 9 2 11 2 14 3 15 3 13 3 4 4 1 4 5 4 6 5 3 5 7 5 4 6 7 6 1 6 8 7 13 7 9 7 14 8 11 8 15 8 12 9 5 9 9 9 15 10 10 10 3 10 13 11 8 11 11 11 9 12 0 12 11 12 0 13 1 13 2 13 11 14 0 14 2 14 10 15 11 15 3 15 11 16 2 16 3 16 15 17 6 17 13 17 6 18 7 18 4 18 13 19 6 19 4 19 12 20 13 20 5 20 13 21 4 21 5 21 1 22 0 22 5 22 3 23 2 23 7 23 7 24 2 24 1 24 13 25 12 25 9 25 11 26 10 26 15 26 5 27 0 27 9 27</p>
        </polylist>
      </mesh>
      <extra><technique profile="MAYA"><double_sided>1</double_sided></technique></extra>
    </geometry>
  </library_geometries>
  <library_controllers/>
  <library_visual_scenes>
    <visual_scene id="Scene" name="Scene">
      <node id="Cube" name="Cube" type="NODE">
        <matrix sid="transform">0.25 0 0 0 0 0.25 0 0 0 0 0.008866171 0 0 0 0 1</matrix>
        <instance_geometry url="#Cube-mesh">
          <bind_material>
            <technique_common>
              <instance_material symbol="Material-material" target="#Material-material"/>
            </technique_common>
          </bind_material>
        </instance_geometry>
      </node>
    </visual_scene>
  </library_visual_scenes>
  <scene>
    <instance_visual_scene url="#Scene"/>
  </scene>
</COLLADA>