<?xml version="1.0" encoding="utf-8"?>
<COLLADA xmlns="http://www.collada.org/2005/11/COLLADASchema" version="1.4.1">
  <asset>
    <contributor>
      <author>Blender User</author>
      <authoring_tool>Blender 2.68.0 r58537</authoring_tool>
    </contributor>
    <created>2013-10-04T05:46:26</created>
    <modified>2013-10-04T05:46:26</modified>
    <unit name="meter" meter="1"/>
    <up_axis>Z_UP</up_axis>
  </asset>
  <library_images/>
  <library_effects>
    <effect id="Material_001-effect">
      <profile_COMMON>
        <technique sid="common">
          <phong>
            <emission>
              <color sid="emission">0 0 0 1</color>
            </emission>
            <ambient>
              <color sid="ambient">0 0 0 1</color>
            </ambient>
            <diffuse>
              <color sid="diffuse">0.64 0.01437756 0 1</color>
            </diffuse>
            <specular>
              <color sid="specular">0.5 0.5 0.5 1</color>
            </specular>
            <shininess>
              <float sid="shininess">50</float>
            </shininess>
            <index_of_refraction>
              <float sid="index_of_refraction">1</float>
            </index_of_refraction>
          </phong>
        </technique>
        <extra>
          <technique profile="GOOGLEEARTH">
            <double_sided>1</double_sided>
          </technique>
        </extra>
      </profile_COMMON>
      <extra><technique profile="MAX3D"><double_sided>1</double_sided></technique></extra>
    </effect>
  </library_effects>
  <library_materials>
    <material id="Material_001-material" name="Material_001">
      <instance_effect url="#Material_001-effect"/>
    </material>
  </library_materials>
  <library_geometries>
    <geometry id="Cube_001-mesh" name="Cube.001">
      <mesh>
        <source id="Cube_001-mesh-positions">
          <float_array id="Cube_001-mesh-positions-array" count="72">-0.1851769 -0.1851769 -0.07748258 -0.1851769 0.1851769 -0.07748258 0.1851769 0.1851769 -0.07748258 0.1851769 -0.1851769 -0.07748258 -0.1851769 -0.1851769 0.8011837 -0.1851769 0.1851769 0.8011837 0.1851769 0.1851769 0.8011837 0.1851769 -0.1851769 0.8011837 -0.1851769 -1.869236 -0.07748258 0.1851769 -1.869236 -0.07748258 -0.1851769 -1.869236 0.8011837 0.1851769 -1.869236 0.8011837 -0.1851769 1.885206 -0.07748258 0.1851769 1.885206 -0.07748258 -0.1851769 1.885206 0.8011837 0.1851769 1.885206 0.8011837 1.885868 0.1851769 -0.07748258 1.885868 -0.1851769 -0.07748258 1.885868 0.1851769 0.8011837 1.885868 -0.1851769 0.8011837 -1.885868 -0.1851769 -0.07748258 -1.885868 0.1851769 -0.07748258 -1.885868 -0.1851769 0.8011837 -1.885868 0.1851769 0.8011837</float_array>
          <technique_common>
            <accessor source="#Cube_001-mesh-positions-array" count="24" stride="3">
              <param name="X" type="float"/>
              <param name="Y" type="float"/>
              <param name="Z" type="float"/>
            </accessor>
          </technique_common>
        </source>
        <source id="Cube_001-mesh-normals">
          <float_array id="Cube_001-mesh-normals-array" count="132">0 0 -1 0 0 -1 0 0 1 0 0 -1 0 0 -1 0 0 1 0 -1 0 1 0 0 0 0 1 -1 0 0 0 1 0 0 0 1 -1 0 0 1 0 0 1 0 0 0 -1 0 0 1 0 0 0 -1 -1 0 0 0 -1 0 0 0 1 0 1 0 0 0 -1 0 0 -1 0 0 1 0 0 -1 0 0 -1 0 0 1 0 -1 0 1 0 0 0 0 1 -1 0 0 0 1 0 0 0 1 -1 0 0 1 0 0 1 0 0 0 -1 0 0 1 0 0 0 -1 -1 0 0 0 -1 0 0 0 1 0 1 0</float_array>
          <technique_common>
            <accessor source="#Cube_001-mesh-normals-array" count="44" stride="3">
              <param name="X" type="float"/>
              <param name="Y" type="float"/>
              <param name="Z" type="float"/>
            </accessor>
          </technique_common>
        </source>
        <vertices id="Cube_001-mesh-vertices">
          <input semantic="POSITION" source="#Cube_001-mesh-positions"/>
        </vertices>
        <polylist material="Material_001-material" count="44">
          <input semantic="VERTEX" source="#Cube_001-mesh-vertices" offset="0"/>
          <input semantic="NORMAL" source="#Cube_001-mesh-normals" offset="1"/>
          <vcount>3 3 3 3 3 3 3 3 3 3 3 3 3 3 3 3 3 3 3 3 3 3 3 3 3 3 3 3 3 3 3 3 3 3 3 3 3 3 3 3 3 3 3 3 </vcount>
          <p>1 0 0 0 21 0 2 1 1 1 13 1 6 2 7 2 18 2 0 3 3 3 8 3 0 4 1 4 3 4 7 5 6 5 4 5 11 6 10 6 9 6 3 7 7 7 9 7 7 8 4 8 11 8 4 9 0 9 10 9 14 10 15 10 12 10 5 11 6 11 14 11 1 12 5 12 12 12 6 13 2 13 15 13 18 14 19 14 16 14 7 15 3 15 19 15 2 16 6 16 16 16 3 17 2 17 17 17 22 18 23 18 20 18 0 19 4 19 20 19 4 20 5 20 22 20 5 21 1 21 23 21 0 22 20 22 21 22 1 23 12 23 13 23 7 24 19 24 18 24 3 25 9 25 8 25 1 26 2 26 3 26 6 27 5 27 4 27 10 28 8 28 9 28 7 29 11 29 9 29 4 30 10 30 11 30 0 31 8 31 10 31 15 32 13 32 12 32 6 33 15 33 14 33 5 34 14 34 12 34 2 35 13 35 15 35 19 36 17 36 16 36 3 37 17 37 19 37 6 38 18 38 16 38 2 39 16 39 17 39 23 40 21 40 20 40 4 41 22 41 20 41 5 42 23 42 22 42 1 43 21 43 23 43</p>
        </polylist>
      </mesh>
      <extra><technique profile="MAYA"><double_sided>1</double_sided></technique></extra>
    </geometry>
  </library_geometries>
  <library_controllers/>
  <library_visual_scenes>
    <visual_scene id="Scene" name="Scene">
      <node id="Cube" name="Cube" type="NODE">
        <matrix sid="transform">0.1567232 0 0 1.89528e-4 0 0.1567232 0 -5.75623e-5 0 0 0.01335825 -0.008621322 0 0 0 1</matrix>
        <instance_geometry url="#Cube_001-mesh">
          <bind_material>
            <technique_common>
              <instance_material symbol="Material_001-material" target="#Material_001-material"/>
            </technique_common>
          </bind_material>
        </instance_geometry>
      </node>
    </visual_scene>
  </library_visual_scenes>
  <scene>
    <instance_visual_scene url="#Scene"/>
  </scene>
</COLLADA>