<?xml version="1.0" encoding="UTF-8" standalone="no" ?>
<COLLADA xmlns="http://www.collada.org/2005/11/COLLADASchema" version="1.4.1">
    <asset>
        <contributor>
            <authoring_tool>SketchUp 15.3.331</authoring_tool>
        </contributor>
        <created>2015-04-02T04:02:50Z</created>
        <modified>2015-04-02T04:02:50Z</modified>
        <unit meter="0.0254" name="inch" />
        <up_axis>Z_UP</up_axis>
    </asset>
    <library_visual_scenes>
        <visual_scene id="ID1">
            <node name="SketchUp">
                <node id="ID2" name="instance_0">
                    <matrix>0.37 0 0 0.04025649 0 0.37 0 -0.1027565 0 0 0.37 0 0 0 0 1</matrix>
                    <instance_node url="#ID3" />
                </node>
            </node>
        </visual_scene>
    </library_visual_scenes>
    <library_nodes>
        <node id="ID3" name="skpB7CC">
            <instance_geometry url="#ID4">
                <bind_material>
                    <technique_common>
                        <instance_material symbol="Material2" target="#ID5">
                            <bind_vertex_input semantic="UVSET0" input_semantic="TEXCOORD" input_set="0" />
                        </instance_material>
                    </technique_common>
                </bind_material>
            </instance_geometry>
        </node>
    </library_nodes>
    <library_geometries>
        <geometry id="ID4">
            <mesh>
                <source id="ID7">
                    <float_array id="ID10" count="432">-31.2044 4.305262 0 -29.17644 -11.87373 0 -31.25542 -3.91773 0 -29.02685 12.23486 0 -25.10912 -19.02056 0 -24.87117 19.33067 0 -19.33067 -24.87117 0 -19.02056 25.10912 0 -12.23486 -29.02685 0 -11.87373 29.17644 0 -4.305262 -31.2044 0 -3.91773 31.25542 0 3.91773 -31.25542 0 4.305262 31.2044 0 11.87373 -29.17644 0 12.23486 29.02685 0 19.02056 -25.10912 0 19.33067 24.87117 0 24.87117 -19.33067 0 25.10912 19.02056 0 29.02685 -12.23486 0 29.17644 11.87373 0 31.2044 -4.305262 0 31.25542 3.91773 0 25.10912 19.02056 0 29.17644 11.87373 1.8 29.17644 11.87373 0 25.10912 19.02056 1.8 29.17644 11.87373 0 31.25542 3.91773 1.8 31.25542 3.91773 0 29.17644 11.87373 1.8 31.25542 3.91773 0 31.2044 -4.305262 1.8 31.2044 -4.305262 0 31.25542 3.91773 1.8 31.2044 -4.305262 0 29.02685 -12.23486 1.8 29.02685 -12.23486 0 31.2044 -4.305262 1.8 29.02685 -12.23486 0 24.87117 -19.33067 1.8 24.87117 -19.33067 0 29.02685 -12.23486 1.8 24.87117 -19.33067 1.8 19.02056 -25.10912 0 24.87117 -19.33067 0 19.02056 -25.10912 1.8 19.02056 -25.10912 1.8 11.87373 -29.17644 0 19.02056 -25.10912 0 11.87373 -29.17644 1.8 11.87373 -29.17644 1.8 3.91773 -31.25542 0 11.87373 -29.17644 0 3.91773 -31.25542 1.8 3.91773 -31.25542 1.8 -4.305262 -31.2044 0 3.91773 -31.25542 0 -4.305262 -31.2044 1.8 -4.305262 -31.2044 1.8 -12.23486 -29.02685 0 -4.305262 -31.2044 0 -12.23486 -29.02685 1.8 -12.23486 -29.02685 1.8 -19.33067 -24.87117 0 -12.23486 -29.02685 0 -19.33067 -24.87117 1.8 -25.10912 -19.02056 1.8 -19.33067 -24.87117 0 -19.33067 -24.87117 1.8 -25.10912 -19.02056 0 -29.17644 -11.87373 1.8 -25.10912 -19.02056 0 -25.10912 -19.02056 1.8 -29.17644 -11.87373 0 -31.25542 -3.91773 1.8 -29.17644 -11.87373 0 -29.17644 -11.87373 1.8 -31.25542 -3.91773 0 -31.2044 4.305262 1.8 -31.25542 -3.91773 0 -31.25542 -3.91773 1.8 -31.2044 4.305262 0 -29.02685 12.23486 1.8 -31.2044 4.305262 0 -31.2044 4.305262 1.8 -29.02685 12.23486 0 -24.87117 19.33067 1.8 -29.02685 12.23486 0 -29.02685 12.23486 1.8 -24.87117 19.33067 0 -24.87117 19.33067 1.8 -19.02056 25.10912 0 -24.87117 19.33067 0 -19.02056 25.10912 1.8 -19.02056 25.10912 1.8 -11.87373 29.17644 0 -19.02056 25.10912 0 -11.87373 29.17644 1.8 -11.87373 29.17644 1.8 -3.91773 31.25542 0 -11.87373 29.17644 0 -3.91773 31.25542 1.8 -3.91773 31.25542 1.8 4.305262 31.2044 0 -3.91773 31.25542 0 4.305262 31.2044 1.8 4.305262 31.2044 1.8 12.23486 29.02685 0 4.305262 31.2044 0 12.23486 29.02685 1.8 12.23486 29.02685 1.8 19.33067 24.87117 0 12.23486 29.02685 0 19.33067 24.87117 1.8 19.33067 24.87117 0 25.10912 19.02056 1.8 25.10912 19.02056 0 19.33067 24.87117 1.8 -29.17644 -11.87373 1.8 -31.2044 4.305262 1.8 -31.25542 -3.91773 1.8 -29.02685 12.23486 1.8 -25.10912 -19.02056 1.8 -24.87117 19.33067 1.8 -19.33067 -24.87117 1.8 -19.02056 25.10912 1.8 -12.23486 -29.02685 1.8 -11.87373 29.17644 1.8 -4.305262 -31.2044 1.8 -3.91773 31.25542 1.8 3.91773 -31.25542 1.8 4.305262 31.2044 1.8 11.87373 -29.17644 1.8 12.23486 29.02685 1.8 19.02056 -25.10912 1.8 19.33067 24.87117 1.8 24.87117 -19.33067 1.8 25.10912 19.02056 1.8 29.02685 -12.23486 1.8 29.17644 11.87373 1.8 31.2044 -4.305262 1.8 31.25542 3.91773 1.8</float_array>
                    <technique_common>
                        <accessor count="144" source="#ID10" stride="3">
                            <param name="X" type="float" />
                            <param name="Y" type="float" />
                            <param name="Z" type="float" />
                        </accessor>
                    </technique_common>
                </source>
                <source id="ID8">
                    <float_array id="ID11" count="432">0 0 -1 0 0 -1 0 0 -1 0 0 -1 0 0 -1 0 0 -1 0 0 -1 0 0 -1 0 0 -1 0 0 -1 0 0 -1 0 0 -1 0 0 -1 0 0 -1 0 0 -1 0 0 -1 0 0 -1 0 0 -1 0 0 -1 0 0 -1 0 0 -1 0 0 -1 0 0 -1 0 0 -1 0.8691105 0.494618 0 0.8691105 0.494618 0 0.8691105 0.494618 0 0.8691105 0.494618 0 0.9675132 0.2528206 0 0.9675132 0.2528206 0 0.9675132 0.2528206 0 0.9675132 0.2528206 0 0.9999808 -0.006204435 0 0.9999808 -0.006204435 0 0.9999808 -0.006204435 0 0.9999808 -0.006204435 0 0.9643014 -0.2648072 0 0.9643014 -0.2648072 0 0.9643014 -0.2648072 0 0.9643014 -0.2648072 0 0.8629066 -0.5053635 0 0.8629066 -0.5053635 0 0.8629066 -0.5053635 0 0.8629066 -0.5053635 0 0.7027056 -0.7114808 0 0.7027056 -0.7114808 0 0.7027056 -0.7114808 0 0.7027056 -0.7114808 0 0.494618 -0.8691105 0 0.494618 -0.8691105 0 0.494618 -0.8691105 0 0.494618 -0.8691105 0 0.2528206 -0.9675132 0 0.2528206 -0.9675132 0 0.2528206 -0.9675132 0 0.2528206 -0.9675132 0 -0.006204435 -0.9999808 0 -0.006204435 -0.9999808 0 -0.006204435 -0.9999808 0 -0.006204435 -0.9999808 0 -0.2648072 -0.9643014 0 -0.2648072 -0.9643014 0 -0.2648072 -0.9643014 0 -0.2648072 -0.9643014 0 -0.5053635 -0.8629066 0 -0.5053635 -0.8629066 0 -0.5053635 -0.8629066 0 -0.5053635 -0.8629066 0 -0.7114808 -0.7027056 0 -0.7114808 -0.7027056 0 -0.7114808 -0.7027056 0 -0.7114808 -0.7027056 0 -0.8691105 -0.494618 0 -0.8691105 -0.494618 0 -0.8691105 -0.494618 0 -0.8691105 -0.494618 0 -0.9675132 -0.2528206 0 -0.9675132 -0.2528206 0 -0.9675132 -0.2528206 0 -0.9675132 -0.2528206 0 -0.9999808 0.006204435 0 -0.9999808 0.006204435 0 -0.9999808 0.006204435 0 -0.9999808 0.006204435 0 -0.9643014 0.2648072 0 -0.9643014 0.2648072 0 -0.9643014 0.2648072 0 -0.9643014 0.2648072 0 -0.8629066 0.5053635 0 -0.8629066 0.5053635 0 -0.8629066 0.5053635 0 -0.8629066 0.5053635 0 -0.7027056 0.7114808 0 -0.7027056 0.7114808 0 -0.7027056 0.7114808 0 -0.7027056 0.7114808 0 -0.494618 0.8691105 0 -0.494618 0.8691105 0 -0.494618 0.8691105 0 -0.494618 0.8691105 0 -0.2528206 0.9675132 0 -0.2528206 0.9675132 0 -0.2528206 0.9675132 0 -0.2528206 0.9675132 0 0.006204435 0.9999808 0 0.006204435 0.9999808 0 0.006204435 0.9999808 0 0.006204435 0.9999808 0 0.2648072 0.9643014 0 0.2648072 0.9643014 0 0.2648072 0.9643014 0 0.2648072 0.9643014 0 0.5053635 0.8629066 0 0.5053635 0.8629066 0 0.5053635 0.8629066 0 0.5053635 0.8629066 0 0.7114808 0.7027056 0 0.7114808 0.7027056 0 0.7114808 0.7027056 0 0.7114808 0.7027056 0 0 0 1 0 0 1 0 0 1 0 0 1 0 0 1 0 0 1 0 0 1 0 0 1 0 0 1 0 0 1 0 0 1 0 0 1 0 0 1 0 0 1 0 0 1 0 0 1 0 0 1 0 0 1 0 0 1 0 0 1 0 0 1 0 0 1 0 0 1 0 0 1</float_array>
                    <technique_common>
                        <accessor count="144" source="#ID11" stride="3">
                            <param name="X" type="float" />
                            <param name="Y" type="float" />
                            <param name="Z" type="float" />
                        </accessor>
                    </technique_common>
                </source>
                <vertices id="ID9">
                    <input semantic="POSITION" source="#ID7" />
                    <input semantic="NORMAL" source="#ID8" />
                </vertices>
                <triangles count="92" material="Material2">
                    <input offset="0" semantic="VERTEX" source="#ID9" />
                    <p>0 1 2 1 0 3 1 3 4 4 3 5 4 5 6 6 5 7 6 7 8 8 7 9 8 9 10 10 9 11 10 11 12 12 11 13 12 13 14 14 13 15 14 15 16 16 15 17 16 17 18 18 17 19 18 19 20 20 19 21 20 21 22 22 21 23 24 25 26 25 24 27 28 29 30 29 28 31 32 33 34 33 32 35 36 37 38 37 36 39 40 41 42 41 40 43 44 45 46 45 44 47 48 49 50 49 48 51 52 53 54 53 52 55 56 57 58 57 56 59 60 61 62 61 60 63 64 65 66 65 64 67 68 69 70 69 68 71 72 73 74 73 72 75 76 77 78 77 76 79 80 81 82 81 80 83 84 85 86 85 84 87 88 89 90 89 88 91 92 93 94 93 92 95 96 97 98 97 96 99 100 101 102 101 100 103 104 105 106 105 104 107 108 109 110 109 108 111 112 113 114 113 112 115 116 117 118 117 116 119 120 121 122 121 120 123 123 120 124 123 124 125 125 124 126 125 126 127 127 126 128 127 128 129 129 128 130 129 130 131 131 130 132 131 132 133 133 132 134 133 134 135 135 134 136 135 136 137 137 136 138 137 138 139 139 138 140 139 140 141 141 140 142 141 142 143</p>
                </triangles>
            </mesh>
        </geometry>
    </library_geometries>
    <library_materials>
        <material id="ID5" name="__auto_">
            <instance_effect url="#ID6" />
        </material>
    </library_materials>
    <library_effects>
        <effect id="ID6">
            <profile_COMMON>
                <technique sid="COMMON">
                    <lambert>
                        <diffuse>
                            <color>0.4 0.8 0 1</color>
                        </diffuse>
                    </lambert>
                </technique>
            </profile_COMMON>
        </effect>
    </library_effects>
    <scene>
        <instance_visual_scene url="#ID1" />
    </scene>
</COLLADA>
