<?xml version="1.0" encoding="UTF-8" standalone="no" ?>
<COLLADA xmlns="http://www.collada.org/2005/11/COLLADASchema" version="1.4.1">
    <asset>
        <contributor>
            <authoring_tool>SketchUp 15.3.331</authoring_tool>
        </contributor>
        <created>2015-03-02T23:08:51Z</created>
        <modified>2015-03-02T23:08:51Z</modified>
        <unit meter="0.0254" name="inch" />
        <up_axis>Z_UP</up_axis>
    </asset>
    <library_visual_scenes>
        <visual_scene id="ID1">
            <node name="SketchUp">
                <instance_geometry url="#ID2">
                    <bind_material>
                        <technique_common>
                            <instance_material symbol="Material2" target="#ID3">
                                <bind_vertex_input semantic="UVSET0" input_semantic="TEXCOORD" input_set="0" />
                            </instance_material>
                        </technique_common>
                    </bind_material>
                </instance_geometry>
            </node>
        </visual_scene>
    </library_visual_scenes>
    <library_geometries>
        <geometry id="ID2">
            <mesh>
                <source id="ID5">
                    <float_array id="ID8" count="144">-5 10 0 -10 -5 0 -10 5 0 -5 -10 0 5 10 0 5 -10 0 10 5 0 10 -5 0 5 -10 0.7 -5 -10 0 5 -10 0 -5 -10 0.7 -10 -5 0.7 -5 -10 0 -5 -10 0.7 -10 -5 0 -10 5 0.7 -10 -5 0 -10 -5 0.7 -10 5 0 -5 10 0.7 -10 5 0 -10 5 0.7 -5 10 0 -5 10 0.7 5 10 0 -5 10 0 5 10 0.7 5 10 0 10 5 0.7 10 5 0 5 10 0.7 10 5 0 10 -5 0.7 10 -5 0 10 5 0.7 10 -5 0 5 -10 0.7 5 -10 0 10 -5 0.7 -5 -10 0.7 -10 5 0.7 -10 -5 0.7 -5 10 0.7 5 -10 0.7 5 10 0.7 10 -5 0.7 10 5 0.7</float_array>
                    <technique_common>
                        <accessor count="48" source="#ID8" stride="3">
                            <param name="X" type="float" />
                            <param name="Y" type="float" />
                            <param name="Z" type="float" />
                        </accessor>
                    </technique_common>
                </source>
                <source id="ID6">
                    <float_array id="ID9" count="144">0 0 -1 0 0 -1 0 0 -1 0 0 -1 0 0 -1 0 0 -1 0 0 -1 0 0 -1 -0 -1 -0 -0 -1 -0 -0 -1 -0 -0 -1 -0 -0.7071068 -0.7071068 -0 -0.7071068 -0.7071068 -0 -0.7071068 -0.7071068 -0 -0.7071068 -0.7071068 -0 -1 0 0 -1 0 0 -1 0 0 -1 0 0 -0.7071068 0.7071068 0 -0.7071068 0.7071068 0 -0.7071068 0.7071068 0 -0.7071068 0.7071068 0 -0 1 0 -0 1 0 -0 1 0 -0 1 0 0.7071068 0.7071068 0 0.7071068 0.7071068 0 0.7071068 0.7071068 0 0.7071068 0.7071068 0 1 0 0 1 0 0 1 0 0 1 0 0 0.7071068 -0.7071068 0 0.7071068 -0.7071068 0 0.7071068 -0.7071068 0 0.7071068 -0.7071068 0 -0 -0 1 -0 -0 1 -0 -0 1 -0 -0 1 -0 -0 1 -0 -0 1 -0 -0 1 -0 -0 1</float_array>
                    <technique_common>
                        <accessor count="48" source="#ID9" stride="3">
                            <param name="X" type="float" />
                            <param name="Y" type="float" />
                            <param name="Z" type="float" />
                        </accessor>
                    </technique_common>
                </source>
                <vertices id="ID7">
                    <input semantic="POSITION" source="#ID5" />
                    <input semantic="NORMAL" source="#ID6" />
                </vertices>
                <triangles count="28" material="Material2">
                    <input offset="0" semantic="VERTEX" source="#ID7" />
                    <p>0 1 2 1 0 3 3 0 4 3 4 5 5 4 6 5 6 7 8 9 10 9 8 11 12 13 14 13 12 15 16 17 18 17 16 19 20 21 22 21 20 23 24 25 26 25 24 27 28 29 30 29 28 31 32 33 34 33 32 35 36 37 38 37 36 39 40 41 42 41 40 43 43 40 44 43 44 45 45 44 46 45 46 47</p>
                </triangles>
            </mesh>
        </geometry>
    </library_geometries>
    <library_materials>
        <material id="ID3" name="Color_E01">
            <instance_effect url="#ID4" />
        </material>
    </library_materials>
    <library_effects>
        <effect id="ID4">
            <profile_COMMON>
                <technique sid="COMMON">
                    <lambert>
                        <diffuse>
                            <color>1 1 0 1</color>
                        </diffuse>
                    </lambert>
                </technique>
            </profile_COMMON>
        </effect>
    </library_effects>
    <scene>
        <instance_visual_scene url="#ID1" />
    </scene>
</COLLADA>
